# xmcd
# 
# Track frame offsets:
#     150
#     22225
#     42973
#     58782
#     79478
#     102495
#     123881
#     139093
#     153842
#     169378
#     187783
# 
# Disc length: 2745
# 
# Revision: 0
# Processed by: cddbd v1.5.2PL0 Copyright (c) Steve Scherf et al.
# Submitted via: fre:ac v1.0.27
# 
DISCID=940ab70b
DTITLE=鄭宜農 - Pluto
DYEAR=2017
DGENRE=
TTITLE0=太空垃圾之死 Recycling in the Universe
TTITLE1=那些酒精成癮的日子 Golden Old Days
TTITLE2=獸眠 Fantastic Beasts and Where to Find Them
TTITLE3=雲端漫舞 Her
TTITLE4=冬眠 If Winter Comes, Can Spring be Far Behind?
TTITLE5=Our Pop Song (feat.盧凱彤)
TTITLE6=飛行少年 (Feat. 大象體操 Elephant Gym) Catch Me If You Can
TTITLE7=溫州街五巷 The Warmest Street in Taipei
TTITLE8=光 Pride
TTITLE9=酒店關門之後 Last Order
TTITLE10=光 Pride (燦爛時光 version)
EXTD=
EXTT0=
EXTT1=
EXTT2=
EXTT3=
EXTT4=
EXTT5=
EXTT6=
EXTT7=
EXTT8=
EXTT9=
EXTT10=
PLAYORDER=
